<?xml version="1.0" encoding="UTF-8" standalone="no"?>
<svg width="74px" height="73px" viewBox="0 0 74 73" version="1.1" xmlns="http://www.w3.org/2000/svg" xmlns:xlink="http://www.w3.org/1999/xlink" xmlns:sketch="http://www.bohemiancoding.com/sketch/ns">
    <!-- Generator: Sketch 3.3.2 (12043) - http://www.bohemiancoding.com/sketch -->
    <title>Rectangle 69</title>
    <desc>Created with Sketch.</desc>
    <defs></defs>
    <g id="Page-1" stroke="none" stroke-width="1" fill="none" fill-rule="evenodd" sketch:type="MSPage">
        <g id="iPhone-6" sketch:type="MSArtboardGroup" transform="translate(-267.000000, -85.000000)" fill="#34495E">
            <path d="M300.289322,117.5 L258.286645,117.5 C256.088852,117.5 254.289322,119.290861 254.289322,121.5 C254.289322,123.704644 256.078985,125.5 258.286645,125.5 L300.289322,125.5 L300.289322,167.502676 C300.289322,169.70047 302.080183,171.5 304.289322,171.5 C306.493966,171.5 308.289322,169.710337 308.289322,167.502676 L308.289322,125.5 L350.291998,125.5 C352.489792,125.5 354.289322,123.709139 354.289322,121.5 C354.289322,119.295356 352.499659,117.5 350.291998,117.5 L308.289322,117.5 L308.289322,75.4973235 C308.289322,73.2995299 306.498461,71.5 304.289322,71.5 C302.084678,71.5 300.289322,73.2896627 300.289322,75.4973235 L300.289322,117.5 Z" id="Rectangle-69" sketch:type="MSShapeGroup" transform="translate(304.289322, 121.500000) rotate(-45.000000) translate(-304.289322, -121.500000) "></path>
        </g>
    </g>
</svg>