<?xml version="1.0" encoding="UTF-8" standalone="no"?>
<svg width="100px" height="100px" viewBox="0 0 100 100" version="1.1" xmlns="http://www.w3.org/2000/svg" xmlns:xlink="http://www.w3.org/1999/xlink" xmlns:sketch="http://www.bohemiancoding.com/sketch/ns">
    <!-- Generator: Sketch 3.3.2 (12043) - http://www.bohemiancoding.com/sketch -->
    <title>Oval 8 + Rectangle 66 + Rectangle 68</title>
    <desc>Created with Sketch.</desc>
    <defs></defs>
    <g id="Page-1" stroke="none" stroke-width="1" fill="none" fill-rule="evenodd" sketch:type="MSPage">
        <g id="iPhone-6" sketch:type="MSArtboardGroup" transform="translate(-79.000000, -69.000000)">
            <g id="Oval-8-+-Rectangle-66-+-Rectangle-68" sketch:type="MSLayerGroup" transform="translate(79.000000, 69.000000)">
                <circle id="Oval-8" stroke="#34495E" stroke-width="8" sketch:type="MSShapeGroup" cx="50" cy="50" r="50"></circle>
                <path d="M20.687327,67.3552787 C21.0945069,67.8112841 21.7057138,68.0774438 22.3632982,68.0199127 L23.0905928,67.9562826 L23.8273992,68.0207448 C24.2244424,68.0554816 24.6054207,67.9702958 24.9344229,67.7949684 L53.2304681,65.3193852 C54.333371,65.2228937 55.1523299,64.2533311 55.0561608,63.154113 L54.8814855,61.1575657 C54.7856445,60.0620977 53.812005,59.2455883 52.7075337,59.342217 L26.3907814,61.6446345 L28.6931989,35.3278823 C28.7896904,34.2249794 27.9770683,33.2500995 26.8778502,33.1539304 L24.881303,32.9792552 C23.785835,32.8834141 22.8126594,33.7004765 22.7160307,34.8049478 L20.2405757,63.0995277 C20.0651353,63.4284192 19.9798234,63.8097058 20.0146711,64.2080167 L20.0791333,64.9448231 L20.0155033,65.6721177 C19.9576865,66.3329663 20.2262678,66.9478509 20.687327,67.3552787 Z" id="Rectangle-66" fill="#34495E" sketch:type="MSShapeGroup" transform="translate(37.535416, 50.500000) rotate(45.000000) translate(-37.535416, -50.500000) "></path>
                <rect id="Rectangle-68" fill="#34495E" sketch:type="MSShapeGroup" x="32" y="47.5" width="54" height="6" rx="3"></rect>
            </g>
        </g>
    </g>
</svg>